#!OML:ASF F:\VICON\USERDATA\INSTALL\rory3\rory3.ASF
:FULLY-SPECIFIED
:DEGREES
3245
root -0.0639833 18.304 0.482413 10.171 2.08743 -3.57864
lowerback 0.736593 0.0703511 -0.902923
upperback -3.3125 0.186834 3.49777
thorax -3.84432 0.183183 4.11916
lowerneck -3.61979 -3.41007 0.348574
upperneck 15.8033 -3.4037 -8.58306
head 5.17207 -2.19592 -2.91871
rclavicle -3.23025e-016 7.55382e-015
rhumerus -39.3271 7.85823 -86.9015
rradius 134.511
rwrist 27.072
rhand 10.5492 3.4518
rfingers 7.12502
rthumb 35.647 -22.9507
lclavicle -3.23025e-016 7.55382e-015
lhumerus -42.3995 -9.3418 92.7015
lradius 117.613
lwrist -25.3041
lhand -11.228 17.1156
lfingers 7.12502
lthumb 14.8009 46.567
rfemur -7.37327 18.5328 21.5509
rtibia 1.39149e-014
rfoot -3.74057 -31.4897
rtoes 4.77696
lfemur -14.4261 -29.922 -9.76616
ltibia 16.8185
lfoot -8.41574 34.8684
ltoes -7.24955
3246
root -0.0771689 18.2994 0.501805 9.86007 2.10669 -4.18738
lowerback 0.774813 0.117234 -0.699717
upperback -3.21842 0.253194 3.49629
thorax -3.7719 0.208004 3.99893
lowerneck -3.63789 -3.44244 0.431989
upperneck 15.848 -3.47388 -8.4299
head 5.18684 -2.21687 -2.88949
rclavicle -3.75206e-015 -1.78906e-014
rhumerus -39.3076 7.89046 -86.9953
rradius 134.593
rwrist 26.9556
rhand 10.5029 3.07019
rfingers 7.12502
rthumb 35.6032 -23.3428
lclavicle -3.75206e-015 -1.78906e-014
lhumerus -42.3853 -9.30717 92.6813
lradius 117.432
lwrist -25.3994
lhand -11.109 17.3385
lfingers 7.12502
lthumb 14.9155 46.7815
rfemur -6.977 18.5515 22.3843
rtibia 2.46493e-014
rfoot -3.86839 -31.2944
rtoes 4.86118
lfemur -14.0132 -30.5862 -9.20206
ltibia 16.8678
lfoot -9.14549 35.5295
ltoes -6.05094
3247
root -0.0796126 18.2997 0.52942 9.60624 2.18229 -4.1125
lowerback 0.68484 0.107976 -0.976633
upperback -3.1224 0.22276 3.27108
thorax -3.61852 0.19421 3.92079
lowerneck -3.72606 -3.47444 0.434006
upperneck 16.0039 -3.53369 -8.23851
head 5.25155 -2.23853 -2.83879
rclavicle 1.02126e-014 -9.14409e-015
rhumerus -39.3114 7.8804 -87.1796
rradius 134.661
rwrist 26.9262
rhand 10.2625 2.74276
rfingers 7.12502
rthumb 35.3753 -23.7248
lclavicle 1.02126e-014 -9.14409e-015
lhumerus -42.4611 -9.32235 92.707
lradius 117.304
lwrist -25.456
lhand -11.1152 17.5404
lfingers 7.12502
lthumb 14.9095 46.9839
rfemur -6.535 18.3802 22.454
rtibia 9.54166e-015
rfoot -4.22754 -31.0894
rtoes 5.23189
lfemur -13.5661 -31.438 -9.45578
ltibia 16.8592
lfoot -9.60709 36.2468
ltoes -5.59876
3248
root -0.0691732 18.3053 0.547657 9.71121 2.52808 -3.25667
lowerback 0.506234 -0.0364787 -1.82358
upperback -3.22115 -0.00421339 2.83427
thorax -3.60335 0.0995339 3.95363
lowerneck -3.77458 -3.50032 0.388982
upperneck 16.2146 -3.56816 -8.11944
head 5.32739 -2.25548 -2.80218
rclavicle 7.0817e-016 -3.43897e-014
rhumerus -39.3677 7.85755 -87.3695
rradius 134.782
rwrist 26.8421
rhand 10.2771 2.95529
rfingers 7.12502
rthumb 35.3891 -23.509
lclavicle 7.0817e-016 -3.43897e-014
lhumerus -42.7397 -9.29807 92.8213
lradius 117.233
lwrist -25.4475
lhand -11.222 17.8128
lfingers 7.12502
lthumb 14.8067 47.2639
rfemur -6.42869 17.8036 21.5506
rtibia 3.57812e-015
rfoot -4.59194 -30.8724
rtoes 5.6457
lfemur -13.587 -32.3127 -10.3501
ltibia 16.7735
lfoot -9.64929 36.692
ltoes -5.52956
3249
root -0.0726766 18.3047 0.558061 9.70187 2.72256 -3.4438
lowerback 0.539826 -0.0853415 -1.86355
upperback -3.33592 -0.0718767 2.75005
thorax -3.73587 0.0692154 3.89215
lowerneck -3.70399 -3.5185 0.396504
upperneck 16.3459 -3.59202 -8.08399
head 5.35543 -2.26581 -2.79511
rclavicle 5.39203e-015 5.96354e-015
rhumerus -39.4378 7.83047 -87.5449
rradius 134.903
rwrist 26.7926
rhand 10.3604 3.3277
rfingers 7.12502
rthumb 35.4681 -23.1177
lclavicle 5.39203e-015 5.96354e-015
lhumerus -43.0329 -9.2033 92.9509
lradius 117.15
lwrist -25.4645
lhand -11.3161 18.1408
lfingers 7.12502
lthumb 14.7159 47.5985
rfemur -6.34736 17.5717 21.8197
rtibia -5.96354e-015
rfoot -4.7072 -30.7152
rtoes 5.94759
lfemur -13.5514 -32.8551 -10.0749
ltibia 16.6948
lfoot -9.92346 37.0981
ltoes -5.09502
3250
root -0.0806701 18.3028 0.569205 9.7653 2.81632 -3.79182
lowerback 0.361642 -0.114705 -1.88598
upperback -3.38242 -0.109056 2.78018
thorax -3.68038 0.0516006 3.93689
lowerneck -3.71237 -3.524 0.330652
upperneck 16.4217 -3.59785 -8.02001
head 5.38327 -2.27008 -2.76661
rclavicle -2.78299e-015 -2.44505e-014
rhumerus -39.4032 7.80638 -87.6394
rradius 134.943
rwrist 26.8186
rhand 10.1733 3.10429
rfingers 7.12502
rthumb 35.2907 -23.3834
lclavicle -2.78299e-015 -2.44505e-014
lhumerus -43.2176 -8.88048 93.1065
lradius 117.031
lwrist -25.5062
lhand -11.4706 18.4083
lfingers 7.12502
lthumb 14.5671 47.8768
rfemur -6.3987 17.4742 22.2353
rtibia 3.97569e-015
rfoot -4.7489 -30.5783
rtoes 6.33458
lfemur -13.6801 -33.3848 -9.55668
ltibia 16.7581
lfoot -10.5673 37.5675
ltoes -3.83505
3251
root -0.0896543 18.2983 0.580974 9.80909 2.82894 -4.25518
lowerback 0.130838 -0.0999589 -1.77615
upperback -3.37191 -0.084169 2.83034
thorax -3.54073 0.0591798 3.92456
lowerneck -3.81727 -3.52026 0.285836
upperneck 16.5159 -3.58547 -7.98655
head 5.43313 -2.26827 -2.75292
rclavicle -6.40459e-015 -3.77691e-014
rhumerus -39.3214 7.69319 -87.7376
rradius 134.935
rwrist 26.7664
rhand 10.1979 2.83004
rfingers 7.12502
rthumb 35.314 -23.6521
lclavicle -6.40459e-015 -3.77691e-014
lhumerus -43.4024 -8.49938 93.3094
lradius 116.955
lwrist -25.5847
lhand -11.4311 18.3059
lfingers 7.12502
lthumb 14.6052 47.7716
rfemur -6.4593 17.4785 22.7672
rtibia 1.94809e-014
rfoot -4.57555 -30.4854
rtoes 5.61954
lfemur -13.9346 -33.8906 -8.93165
ltibia 17.1479
lfoot -11.8668 37.9841
ltoes -1.85942
3252
root -0.096003 18.2947 0.589847 9.76097 2.91764 -4.5122
lowerback 0.162962 -0.0824462 -1.78162
upperback -3.42633 -0.0611554 2.79688
thorax -3.61725 0.0722827 3.89274
lowerneck -3.81497 -3.5604 0.233772
upperneck 16.6699 -3.63359 -7.93374
head 5.48104 -2.29428 -2.73406
rclavicle -4.83295e-015 1.70458e-014
rhumerus -39.3797 7.43882 -87.8655
rradius 134.926
rwrist 26.7868
rhand 10.2292 2.89408
rfingers 7.12502
rthumb 35.3437 -23.581
lclavicle -4.83295e-015 1.70458e-014
lhumerus -43.6297 -8.38744 93.499
lradius 116.81
lwrist -25.5062
lhand -11.1716 17.5586
lfingers 7.12502
lthumb 14.8552 47.006
rfemur -6.38232 17.3626 23.106
rtibia 4.37326e-015
rfoot -4.71626 -30.3669
rtoes 6.03534
lfemur -14.1188 -34.4495 -8.59429
ltibia 17.5914
lfoot -13.0813 38.3286
ltoes -0.188053
3253
root -0.0999797 18.2925 0.599122 9.71288 2.97449 -4.72093
lowerback 0.15381 -0.0661608 -1.7993
upperback -3.4621 -0.0402733 2.76015
thorax -3.65086 0.0836806 3.86407
lowerneck -3.80783 -3.60275 0.122564
upperneck 16.8009 -3.68533 -7.84986
head 5.52319 -2.32298 -2.69524
rclavicle 1.06128e-014 -8.84592e-015
rhumerus -39.4549 7.17695 -87.9929
rradius 134.941
rwrist 26.7676
rhand 10.2245 2.98024
rfingers 7.12502
rthumb 35.3392 -23.4959
lclavicle 1.06128e-014 -8.84592e-015
lhumerus -43.8232 -8.36908 93.6222
lradius 116.679
lwrist -25.4317
lhand -11.066 17.0644
lfingers 7.12502
lthumb 14.957 46.5043
rfemur -6.29712 17.2683 23.3864
rtibia 3.97569e-015
rfoot -4.96453 -30.2461
rtoes 6.92858
lfemur -14.2938 -34.9422 -8.33931
ltibia 18.057
lfoot -13.9148 38.7216
ltoes 0.641682
3254
root -0.107171 18.2888 0.609114 9.61122 2.90441 -5.18411
lowerback 0.00678371 -0.0370947 -1.6261
upperback -3.35351 0.00339746 2.83285
thorax -3.45802 0.0970814 3.83868
lowerneck -3.88643 -3.58125 0.0234075
upperneck 16.7806 -3.65138 -7.80973
head 5.53547 -2.31067 -2.66592
rclavicle 8.69062e-015 -1.16538e-014
rhumerus -39.3479 7.07062 -88.142
rradius 134.954
rwrist 26.7511
rhand 10.2694 3.11761
rfingers 7.12502
rthumb 35.3818 -23.3484
lclavicle 8.69062e-015 -1.16538e-014
lhumerus -43.7969 -8.23733 93.5912
lradius 116.535
lwrist -25.4043
lhand -10.918 16.6143
lfingers 7.12502
lthumb 15.0995 46.0436
rfemur -6.20276 17.3448 23.9515
rtibia -5.1684e-015
rfoot -4.72473 -30.1662
rtoes 6.36483
lfemur -14.3562 -35.1424 -7.87306
ltibia 18.4898
lfoot -14.6022 39.043
ltoes 1.2812
3255
root -0.111067 18.2858 0.616115 9.52856 2.91073 -5.65053
lowerback -0.133125 -0.00947275 -1.38392
upperback -3.25022 0.0453028 2.90283
thorax -3.2744 0.108205 3.77182
lowerneck -3.90538 -3.58869 0.00991611
upperneck 16.7056 -3.65818 -7.84419
head 5.5147 -2.3158 -2.67346
rclavicle 1.83845e-014 -1.47598e-014
rhumerus -39.2182 6.92388 -88.2531
rradius 134.977
rwrist 26.7973
rhand 10.3994 3.51554
rfingers 7.12502
rthumb 35.505 -22.9211
lclavicle 1.83845e-014 -1.47598e-014
lhumerus -43.7159 -8.20079 93.5621
lradius 116.269
lwrist -25.2871
lhand -11.0871 15.9094
lfingers 7.12502
lthumb 14.9366 45.3508
rfemur -6.1265 17.3449 24.5167
rtibia 1.11319e-014
rfoot -4.45702 -30.1205
rtoes 5.6867
lfemur -14.4721 -35.3064 -7.37687
ltibia 18.9093
lfoot -15.0151 39.2235
ltoes 1.37634
3256
root -0.109728 18.2849 0.621196 9.50343 3.00043 -5.94229
lowerback -0.228313 0.000985184 -1.20271
upperback -3.20894 0.0611936 2.89286
thorax -3.17823 0.109142 3.65784
lowerneck -3.89126 -3.65075 0.0379677
upperneck 16.6189 -3.74149 -7.90292
head 5.47965 -2.35647 -2.69837
rclavicle 2.09035e-014 8.94531e-015
rhumerus -39.176 6.74718 -88.4305
rradius 134.992
rwrist 26.7197
rhand 10.6189 3.69187
rfingers 7.12502
rthumb 35.7131 -22.6946
lclavicle 2.09035e-014 8.94531e-015
lhumerus -43.7126 -8.2483 93.5594
lradius 116.066
lwrist -25.1787
lhand -11.2883 15.5517
lfingers 7.12502
lthumb 14.7428 45.0074
rfemur -6.09328 17.2307 24.8631
rtibia 8.34896e-015
rfoot -4.38315 -30.0411
rtoes 5.63765
lfemur -14.6578 -35.5142 -7.0376
ltibia 19.2902
lfoot -15.2939 39.3129
ltoes 1.57126
3257
root -0.107134 18.2838 0.625242 9.43678 3.02927 -6.19052
lowerback -0.229385 0.00550907 -1.04438
upperback -3.17448 0.0688394 2.88353
thorax -3.14177 0.107602 3.55814
lowerneck -3.89543 -3.67221 0.0376798
upperneck 16.5594 -3.76467 -7.96251
head 5.45954 -2.37061 -2.71682
rclavicle -8.87698e-015 -2.3556e-014
rhumerus -39.2007 6.61533 -88.6015
rradius 134.927
rwrist 26.6365
rhand 10.5484 3.29907
rfingers 7.12502
rthumb 35.6463 -23.1036
lclavicle -8.87698e-015 -2.3556e-014
lhumerus -43.7192 -8.28579 93.5621
lradius 115.961
lwrist -25.1156
lhand -11.35 15.6734
lfingers 7.12502
lthumb 14.6833 45.1335
rfemur -6.01881 17.1633 25.1594
rtibia -9.14409e-015
rfoot -4.36943 -29.9879
rtoes 5.75575
lfemur -14.7136 -35.5775 -6.82354
ltibia 19.5857
lfoot -15.4825 39.3514
ltoes 1.69621
3258
root -0.104115 18.2825 0.62931 9.32812 3.01227 -6.32885
lowerback -0.168739 0.0280904 -1.00822
upperback -3.14067 0.0989989 2.87395
thorax -3.14289 0.121198 3.52692
lowerneck -3.88835 -3.69423 0.014736
upperneck 16.5371 -3.78178 -8.03973
head 5.44952 -2.38485 -2.73742
rclavicle -1.27284e-014 3.97569e-016
rhumerus -39.2733 6.39169 -88.6317
rradius 134.837
rwrist 26.7773
rhand 10.3395 2.82752
rfingers 7.12502
rthumb 35.4483 -23.6226
lclavicle -1.27284e-014 3.97569e-016
lhumerus -43.7415 -8.34282 93.6105
lradius 115.886
lwrist -25.0379
lhand -11.2502 15.6884
lfingers 7.12502
lthumb 14.7795 45.1415
rfemur -5.8853 17.1169 25.3481
rtibia 1.66979e-014
rfoot -4.30507 -29.9361
rtoes 5.578
lfemur -14.6544 -35.5933 -6.78392
ltibia 19.8042
lfoot -15.6517 39.3808
ltoes 1.82385
3259
root -0.100963 18.281 0.632329 9.22784 2.97663 -6.41948
lowerback -0.0749065 0.0484773 -1.01225
upperback -3.13444 0.126186 2.86131
thorax -3.19126 0.135224 3.51554
lowerneck -3.85341 -3.69954 -0.132597
upperneck 16.5814 -3.77885 -7.9962
head 5.46243 -2.38958 -2.69969
rclavicle -1.02374e-014 -4.37326e-015
rhumerus -39.3446 6.2623 -88.654
rradius 134.766
rwrist 26.877
rhand 10.1877 2.77256
rfingers 7.12502
rthumb 35.3044 -23.7119
lclavicle -1.02374e-014 -4.37326e-015
lhumerus -43.8565 -8.37562 93.668
lradius 115.889
lwrist -25.1
lhand -11.1964 16.0121
lfingers 7.12502
lthumb 14.8313 45.4613
rfemur -5.76627 17.0802 25.4783
rtibia 1.51076e-014
rfoot -4.11494 -29.8786
rtoes 5.11946
lfemur -14.5885 -35.5059 -6.79149
ltibia 19.9941
lfoot -15.7351 39.3178
ltoes 1.5527
